<?xml version="1.0" encoding="utf-8"?>
<!-- Generator: Adobe Illustrator 24.1.0, SVG Export Plug-In . SVG Version: 6.00 Build 0)  -->
<svg version="1.1" id="Layer_1" xmlns="http://www.w3.org/2000/svg" xmlns:xlink="http://www.w3.org/1999/xlink" x="0px" y="0px"
	 viewBox="0 0 2030.7 2000" style="enable-background:new 0 0 2030.7 2000;" xml:space="preserve">
<style type="text/css">
	.st0{fill:#CCCDEB;}
	.st1{fill:#D6D7F0;}
	.st2{fill:#FF5856;}
	.st3{fill:#D4BFA9;}
	.st4{fill:#EBDBCD;}
	.st5{fill:#E8E8F7;}
	.st6{fill:#FFFFFF;}
	.st7{fill:#4E53BA;}
	.st8{fill:#2B31BA;}
	.st9{fill:#110580;}
</style>
<g>
	<path class="st0" d="M1548.3,1851.7l-852.3-76.8c-23.4-2.1-40.8-22.8-38.7-46.4l102-1132.5c2.1-23.4,22.8-40.8,46.4-38.7L1658,634
		c23.4,2.1,40.8,22.8,38.7,46.4l-102,1132.5C1592.7,1836.4,1571.9,1853.7,1548.3,1851.7z"/>
	<path class="st1" d="M1332.2,1764.4l-823.2,233.9c-22.7,6.4-46.3-6.8-52.7-29.5l-311-1093.8c-6.4-22.7,6.8-46.3,29.5-52.7
		L998,588.5c22.7-6.4,46.3,6.8,52.7,29.5l311,1093.8C1368,1734.2,1354.8,1757.8,1332.2,1764.4z"/>
	<g>
		
			<ellipse transform="matrix(0.932 -0.3625 0.3625 0.932 -261.4211 698.3215)" class="st2" cx="1730.2" cy="1045.8" rx="188.2" ry="190.3"/>
		<path class="st2" d="M2005.8,980.7l-194.7,75.9c-20,7.7-42.9-2.3-50.6-22.3l-0.2-0.4c-7.7-20,2.3-42.9,22.3-50.6l194.7-75.7
			c20-7.7,42.9,2.3,50.6,22.3l0.2,0.4C2035.9,950.3,2025.8,972.9,2005.8,980.7z"/>
		
			<ellipse transform="matrix(0.932 -0.3625 0.3625 0.932 -261.4263 698.3216)" class="st3" cx="1730.2" cy="1045.8" rx="140.5" ry="142.2"/>
		<path class="st4" d="M1666.9,1097.6c-6.4-6.2-11.3-14.9-8.5-24c2.8-9.4,11.3-12.1,20.2-12.3c17.9-0.4,40.4,4,51.7-14.2
			c10.2-16.2,1.5-34.7-6.2-49.8c-4-7.6-8.9-16.6-6.6-25.5c2.3-9.3,13-11.1,21.3-10.4c10.8,1.1,10.6-15.9-0.2-17
			c-21.7-2.1-40.4,12.7-38.5,35.1c1.1,12.5,7.7,22.7,13,33.4c3.8,7.7,8.3,20.2,0.8,27.2c-7.9,7.4-22.3,4.2-32.1,4
			c-11.3-0.2-23,1.7-31.3,10c-16,16-10.8,41.2,4.5,55.5C1663.1,1117.2,1674.8,1105.1,1666.9,1097.6L1666.9,1097.6z"/>
		<path class="st4" d="M1724.3,1137.4c-11.9-16.2,15.9-26.8,26.6-30.8c14.5-5.3,35.3-9.3,44.2-23.4c7.9-12.8,3.8-28.7-1.5-41.5
			c-6.2-15.5-9.8-30.4,3.2-43.4c7.7-7.6-4.5-19.4-12.3-11.7c-12.1,11.9-16.6,29.1-12.5,45.5c3.4,13.2,20,37,3,47.2
			c-8.3,4.9-18.5,7.4-27.6,10.8s-18.5,6.4-26.4,12.1c-13.8,9.6-22.5,29.3-11.5,44.2C1716.2,1154.8,1730.7,1146.3,1724.3,1137.4
			L1724.3,1137.4z"/>
	</g>
	<g>
		<path class="st5" d="M1477.4,1614.9l-848.1,114.6c-23.4,3.2-44.9-13.2-48-36.6L429.1,566.1c-3.2-23.4,13.2-44.9,36.6-48
			l847.9-114.6c23.4-3.2,44.9,13.2,48,36.6l152.2,1126.8C1517,1590.4,1500.8,1611.9,1477.4,1614.9z"/>
		<g>
			<circle class="st6" cx="694.5" cy="814.2" r="86.1"/>
			<circle class="st6" cx="732.9" cy="1098.7" r="86.1"/>
			<circle class="st6" cx="771.4" cy="1383.2" r="86.1"/>
			<path class="st1" d="M1233,725.2l-349.3,47.2c-11.9,1.5-22.8-6.8-24.5-18.7l0,0c-1.5-11.9,6.8-22.8,18.7-24.5l349.3-47.2
				c11.9-1.5,22.8,6.8,24.5,18.7l0,0C1253.4,712.6,1244.9,723.7,1233,725.2z"/>
			<path class="st1" d="M1122,816.4l-228.3,30.8c-11.9,1.5-22.8-6.8-24.5-18.7l0,0c-1.5-11.9,6.8-22.8,18.7-24.5l228.3-30.8
				c11.9-1.5,22.8,6.8,24.5,18.7l0,0C1142.4,803.8,1133.9,814.7,1122,816.4z"/>
			<path class="st1" d="M1310.1,1294.5l-349.3,47.2c-11.9,1.5-22.8-6.8-24.5-18.7l0,0c-1.5-11.9,6.8-22.8,18.7-24.5l349.3-47.2
				c11.9-1.5,22.8,6.8,24.5,18.7l0,0C1330.3,1281.8,1322,1292.8,1310.1,1294.5z"/>
			<path class="st1" d="M1199,1385.5l-228.3,30.8c-11.9,1.5-22.8-6.8-24.5-18.7l0,0c-1.5-11.9,6.8-22.8,18.7-24.5l228.3-30.8
				c11.9-1.5,22.8,6.8,24.5,18.7l0,0C1219.2,1372.8,1210.9,1384,1199,1385.5z"/>
			<path class="st1" d="M1271.5,1009.8L922.2,1057c-11.9,1.5-22.8-6.8-24.5-18.7l0,0c-1.5-11.9,6.8-22.8,18.7-24.5l349.3-47.2
				c11.9-1.5,22.8,6.8,24.5,18.7l0,0C1291.8,997.3,1283.4,1008.3,1271.5,1009.8z"/>
			<path class="st1" d="M1160.5,1101l-228.3,30.8c-11.9,1.5-22.8-6.8-24.5-18.7l0,0c-1.5-11.9,6.8-22.8,18.7-24.5l228.3-30.8
				c11.9-1.5,22.8,6.8,24.5,18.7l0,0C1180.7,1088.3,1172.4,1099.3,1160.5,1101z"/>
			<path class="st7" d="M740,635c-18.9,39.3-35.5,79.5-50,120.5c-11.7-15.1-26.4-26.2-44.7-27c-9.4-0.4-21.3,1.9-26.4,11
				c-0.9,1.5-1.9,3.2-2.8,4.7c-5.9,10-7.6,26.1,4.5,33c9.4,5.5,18.1,8.5,25.5,16.8c10.6,12.1,18.1,27.2,24.7,41.5
				c11.7,25.1,47.2,19.3,52.3-7c11.9-61.4,27.4-122,45.7-181.6C774.6,628,748.9,616.7,740,635z"/>
		</g>
	</g>
	<g>
		<path class="st8" d="M1322.5,31.7L1294,6c-9.6-8.7-24.7-7.9-33.4,1.7L845.4,468.6l63.6,57.2L1324.4,65
			C1333.1,55.3,1332.3,40.4,1322.5,31.7z"/>
		<polygon class="st4" points="908.7,525.8 845,468.4 791.8,578.1 805,590 		"/>
		<polygon class="st8" points="826,533.6 831.8,547.2 841.1,551.3 848,563.4 805,590 791.8,578.1 813.3,534 		"/>
	</g>
	<g>
		<path class="st9" d="M760.8,1530.7c0.6,0,1.1,0,1.7,0.2c2.3,0.8,3.4,3.2,2.6,5.3c-2.8,7.9-6.4,15.9-11,23.2
			c-1.1,2.1-3.8,2.6-5.9,1.3c-2.1-1.1-2.6-3.8-1.3-5.9c4.2-6.8,7.6-14.2,10.2-21.5C757.8,1531.8,759.3,1530.7,760.8,1530.7z"/>
		<path class="st9" d="M74.5,1326.4c0.6,0,0.9,0,1.5,0.2l6,1.7c13.8,4.2,28.1,8.3,43.2,13.2c2.3,0.8,3.4,3,2.6,5.3s-3,3.4-5.3,2.6
			c-14.9-4.9-29.1-9.1-42.9-13l-6-1.7c-2.3-0.6-3.6-3-2.8-5.3C71.3,1327.7,72.8,1326.6,74.5,1326.4z M171.5,1359.1
			c0.6,0,1.3,0,1.9,0.4c17,7.2,32.1,14.7,46.3,23.2c2.1,1.1,2.6,3.8,1.5,5.9c-1.1,2.1-3.8,2.6-5.9,1.5
			c-13.8-8.1-28.7-15.7-45.3-22.7c-2.1-0.9-3.2-3.4-2.3-5.5C168.7,1360.2,170,1359.3,171.5,1359.1z M259,1411.6c1.1,0,2.3,0.2,3,0.9
			c13.4,11.5,25.3,24.2,35.5,38c1.3,1.9,0.9,4.5-0.8,5.9c-1.9,1.3-4.5,0.9-5.9-0.8c-10-13.2-21.5-25.5-34.4-36.6
			c-1.7-1.5-1.9-4.2-0.4-5.9C256.9,1412.1,257.8,1411.7,259,1411.6z M320.1,1492.7c1.7-0.2,3.4,0.8,4.2,2.5
			c7.4,15.9,13,32.5,16.6,49.3c0.6,2.3-0.9,4.5-3.2,5.1s-4.5-0.9-5.1-3.2c-3.6-16.2-8.9-32.1-16-47.6c-0.9-2.1,0-4.5,2.1-5.7
			C319.2,1492.7,319.6,1492.7,320.1,1492.7z M296.5,1548.8c9.3-0.8,18.9-0.8,28.5-0.2c2.3,0.2,4.2,2.1,4,4.5c-0.2,2.5-2.1,4-4.5,4
			c-9.3-0.6-18.5-0.6-27.4,0.2l0,0c-7.7,0.6-15.3,1.7-22.5,3.2c-2.3,0.4-4.5-0.9-4.9-3.2c-0.6-2.3,0.9-4.5,3.2-4.9
			C280.5,1550.5,288.4,1549.4,296.5,1548.8L296.5,1548.8z M374.7,1557.5c0.4,0,0.9,0,1.5,0.2c14.5,4,29.6,8.9,48.9,16.2
			c2.3,0.8,3.2,3.2,2.5,5.5c-0.8,2.3-3.2,3.2-5.5,2.5c-19.1-7.2-34-12.3-48.1-16c-2.3-0.6-3.6-2.8-3-5.1
			C371.5,1558.8,373,1557.7,374.7,1557.5z M226.1,1570.9c1.5-0.2,3,0.6,3.8,1.9c1.3,1.9,0.8,4.5-1.3,5.9c-7.4,4.9-14.2,10.4-20,16.8
			c-5.1,5.5-9.4,11.7-13,18.7c-1.1,2.1-3.6,2.8-5.7,1.9c-2.1-1.1-2.8-3.6-1.9-5.7c4-7.7,8.7-14.5,14.3-20.6
			c6.2-6.8,13.6-12.8,21.5-18.1C224.8,1571.3,225.5,1571.1,226.1,1570.9z M341.1,1591.9c0.2,0,0.4,0,0.6,0c2.3,0.2,4.2,2.1,4,4.3
			c-0.8,18.5-4.3,35.7-10.8,51.2c-0.9,2.1-3.4,3.2-5.5,2.3c-2.1-0.9-3.2-3.4-2.3-5.5c6-14.7,9.4-31,10.2-48.5
			C337.1,1593.8,338.8,1592.1,341.1,1591.9z M471,1592.4c0.6,0,1.3,0,1.9,0.2c5.7,2.1,11.1,4.3,16.8,6.2c11,4,21.1,7.4,31.2,10.4
			c2.3,0.8,3.6,3,2.8,5.3c-0.6,2.3-3,3.6-5.3,2.8c-10.2-3-20.6-6.4-31.7-10.6c-5.7-2.1-11.3-4.2-17-6.4c-2.1-0.8-3.2-3.2-2.5-5.5
			C468,1593.6,469.3,1592.4,471,1592.4z M715.7,1590.4c1.3-0.2,2.8,0.6,3.8,1.7c1.3,1.9,0.9,4.5-0.9,5.9
			c-13.8,10.2-29.5,18.3-46.4,24.2c-2.3,0.8-4.5-0.4-5.3-2.6s0.4-4.5,2.6-5.3c16.2-5.5,31-13.2,44-23
			C714,1590.5,714.7,1590.4,715.7,1590.4z M569.2,1620.6c0.4,0,0.6,0,0.9,0c17.6,2.6,34.4,3.6,50.2,2.6c2.3-0.2,4.3,1.7,4.3,4
			c0.2,2.3-1.7,4.3-4,4.3l0,0c-16.4,0.9-33.8,0-51.9-2.8c-2.3-0.4-4-2.5-3.6-4.7C565.6,1622.1,567.3,1620.8,569.2,1620.6z
			 M182.3,1657.6c2.3-0.2,4.2,1.5,4.5,3.8c1.7,14.2,7.7,26.1,17.2,34.6c2.1,1.7,4.2,3.4,6.4,4.9c1.9,1.3,2.5,3.8,1.3,5.9
			c-1.3,1.9-3.8,2.5-5.9,1.3c-2.6-1.7-5.1-3.6-7.4-5.7c-11.1-10-17.9-23.6-20-39.8c-0.2-2.3,1.3-4.3,3.6-4.7
			C182.1,1657.6,182.3,1657.6,182.3,1657.6z M302,1683.8c1.3-0.2,2.5,0.4,3.4,1.3c1.5,1.7,1.3,4.3-0.4,5.9
			c-13.4,12.1-30,20.8-46.8,24.4c-2.3,0.6-4.5-0.9-5.1-3.2s0.9-4.5,3.2-5.1c15.5-3.4,30.8-11.3,43-22.5
			C300.3,1684.2,301.2,1684,302,1683.8z"/>
		<path class="st9" d="M3.9,1298.5c0.9,0,2.1,0.2,2.8,0.9c4.9,3.8,11.7,7.6,20.8,11.3c2.1,0.9,3.2,3.4,2.3,5.5
			c-0.9,2.1-3.4,3.2-5.5,2.3c-9.6-4-17.2-8.1-22.7-12.5c-1.9-1.5-2.1-4.2-0.8-5.9C1.6,1299,2.7,1298.5,3.9,1298.5z"/>
	</g>
</g>
</svg>
